<?xml version="1.0" standalone="no"?>
<!DOCTYPE svg PUBLIC "-//W3C//DTD SVG 20010904//EN"
 "http://www.w3.org/TR/2001/REC-SVG-20010904/DTD/svg10.dtd">
<svg version="1.0" xmlns="http://www.w3.org/2000/svg"
 width="1000.000000pt" height="1000.000000pt" viewBox="0 0 1000.000000 1000.000000"
 preserveAspectRatio="xMidYMid meet">

<g transform="translate(0.000000,1000.000000) scale(0.100000,-0.100000)"
fill="#000000" stroke="none">
<path d="M4830 8469 c-395 -31 -828 -141 -1200 -305 -962 -424 -1686 -1261
-1929 -2234 -76 -300 -95 -461 -95 -785 0 -263 11 -390 50 -590 231 -1178
1084 -2136 2265 -2543 1079 -372 2278 -222 3224 402 702 464 1209 1166 1404
1946 76 300 95 461 95 785 0 263 -11 390 -50 590 -231 1178 -1084 2136 -2265
2543 -469 162 -1005 230 -1499 191z m705 -243 c775 -102 1433 -413 1958 -925
501 -488 807 -1092 904 -1782 24 -173 24 -575 0 -748 -97 -690 -403 -1294
-904 -1782 -535 -522 -1203 -833 -2003 -931 -138 -17 -592 -17 -730 0 -800 98
-1468 409 -2003 931 -501 488 -807 1092 -904 1782 -24 173 -24 575 0 748 144
1026 774 1889 1726 2366 411 206 810 314 1321 359 94 8 530 -4 635 -18z"/>
<path d="M4075 7756 c-69 -18 -97 -30 -158 -69 -365 -234 -535 -899 -372
-1460 82 -283 239 -501 428 -592 484 -236 960 375 906 1163 -24 340 -143 629
-335 812 -141 134 -310 186 -469 146z"/>
<path d="M5695 7752 c-96 -29 -160 -68 -241 -144 -117 -111 -197 -244 -259
-431 -65 -196 -89 -400 -74 -624 35 -508 295 -909 625 -964 252 -41 510 146
650 473 275 642 60 1497 -421 1678 -83 31 -201 36 -280 12z"/>
<path d="M2845 6161 c-156 -39 -269 -166 -322 -361 -21 -79 -24 -305 -4 -395
26 -125 64 -234 121 -350 126 -255 312 -443 525 -531 62 -25 82 -29 180 -29
102 0 114 2 169 30 166 84 256 265 258 520 1 255 -85 516 -243 738 -72 102
-211 237 -292 286 -140 83 -287 117 -392 92z"/>
<path d="M6958 6155 c-229 -58 -475 -292 -608 -578 -86 -185 -123 -347 -122
-532 2 -255 92 -436 258 -520 55 -28 67 -30 169 -30 98 0 118 4 180 29 308
126 558 467 646 881 20 90 17 315 -4 395 -60 224 -199 357 -387 366 -45 2 -98
-2 -132 -11z"/>
<path d="M4885 5114 c-172 -32 -328 -96 -433 -178 -207 -161 -515 -560 -846
-1096 -253 -408 -305 -564 -262 -771 54 -254 260 -398 596 -416 203 -10 353
23 527 118 159 86 209 108 297 131 83 21 112 23 331 23 299 -1 374 -17 561
-124 205 -118 309 -146 534 -145 186 2 269 18 388 76 211 104 315 353 252 604
-70 278 -663 1165 -1020 1525 -126 127 -247 193 -442 239 -122 30 -365 37
-483 14z"/>
</g>
</svg>
